<svg id="icon-Wholesalers" viewBox="0 0 39 23.5" width="100%" height="100%">
		<path d="M19.5,3c0.1,0,0.1,0,0.2,0c2.8,0,5.6,0.6,8.3,1.4c0.3,0.1,0.5,0.3,0.5,0.6c0,0.2,0,0.3,0,0.5c0,4.4,0,8.7,0,13.1c0,0.2,0,0.4,0,0.7c0.4,0,0.8,0,1.2,0c0-3.7,0-7.3,0-11c0.2,0,0.4,0,0.5,0c0.9,0,1.9,0,2.8,0c0.6,0,1.3,0,1.9,0c0.8,0,1,0.2,1,1c0,3.1,0,6.3,0,9.4c0,0.2,0,0.4,0,0.7c0.3,0,0.5,0.1,0.7,0.1c0,0.4,0,0.7,0,1.1c-11.4,0-22.8,0-34.3,0c0-0.4,0-0.7,0-1.1c0.2,0,0.4-0.1,0.7-0.1c0-0.2,0-0.4,0-0.6c0-3.1,0-6.2,0-9.3c0-0.9,0.2-1.1,1.1-1.1c0.7,0,1.5,0,2.2,0c0.9,0,1.9,0,2.9,0c0,3.7,0,7.4,0,11.1c0.4,0,0.8,0,1.2,0c0-0.2,0-0.4,0-0.7c0-4.4,0-8.8,0-13.2c0-0.8,0-0.8,0.8-1.1C14,3.5,16.7,3,19.5,3 M19.5,9.1c0.9,0,1.8-0.2,2.5-0.7c1.2-0.8,1.2-2.1,0-3c-0.7-0.5-1.6-0.8-2.5-0.8c-0.9,0-1.9,0.3-2.6,0.8c-1.1,0.8-1.1,2.1,0,2.9C17.7,8.9,18.6,9.1,19.5,9.1 M31.2,17.5c1.1,0,2.1,0,3.2,0c0-1.7,0-3.3,0-4.9c0-0.1-0.2-0.3-0.3-0.3c-0.2,0-0.4,0-0.7,0c-0.2,0-0.4,0-0.6,0c0,0-0.1,0-0.1,0c-0.2,0-0.5,0-0.7,0c-0.3,0-0.5,0-0.7,0.2c-0.3,0.2-0.1,0.9-0.1,1.4C31.2,15,31.2,16.2,31.2,17.5 M5.9,17.5c0.5,0,1,0,1.5,0c0.1,0,0.3-0.2,0.3-0.3c0-1.5,0-3,0-4.6c0-0.1-0.2-0.3-0.4-0.3c-0.4,0-0.8,0-1.2,0c-0.4,0-0.8,0-1.2,0c-0.1,0-0.3,0.2-0.3,0.3c0,1.6,0,3.2,0,4.9C5,17.5,5.5,17.5,5.9,17.5 M15.2,19.3c1.2,0,2.4,0,3.5,0c0-1.8,0-3.6,0-5.5c-1.2,0-2.4,0-3.5,0C15.2,15.7,15.2,17.5,15.2,19.3 M20.2,19.3c1.2,0,2.3,0,3.5,0c0-1.8,0-3.6,0-5.4c-1.2,0-2.4,0-3.5,0C20.2,15.7,20.2,17.5,20.2,19.3 M19.5,2c-2.7,0-5.4,0.4-8.5,1.4c-1.2,0.4-1.5,0.8-1.5,2l0,1.8H9.3l-1.5,0l-1.4,0l-2.2,0c-1.5,0-2.1,0.6-2.1,2.1l0,6.6l0,2.4l-0.7,0.1v0.9v1.1v1h1h34.3h1v-1v-1.1v-0.9l-0.7-0.1l0-2.2c0-2.3,0-4.6,0-7c0-1.3-0.6-2-2-2l-1.9,0l-2.8,0c-0.1,0-0.3,0-0.4,0l-0.2,0l-0.2,0V5.5l0-0.2c0-0.1,0-0.2,0-0.3c0-0.8-0.4-1.4-1.2-1.6c-3.2-1-5.9-1.4-8.6-1.5L19.5,2L19.5,2z M19.5,8.1c-0.9,0-1.5-0.2-2-0.6c-0.3-0.2-0.4-0.4-0.4-0.6c0-0.2,0.2-0.5,0.4-0.7c0.5-0.4,1.2-0.6,2-0.6c0.8,0,1.5,0.2,1.9,0.6c0.3,0.2,0.4,0.5,0.4,0.7c0,0.2-0.2,0.5-0.5,0.7C20.9,7.9,20.3,8.1,19.5,8.1L19.5,8.1z M32.2,16.5L32.2,16.5c0-0.9,0-1.8,0-2.6c0-0.2,0-0.3,0-0.5c0,0,0,0,0-0.1c0,0,0.1,0,0.1,0c0.1,0,0.3,0,0.4,0l0.1,0c0.2,0,0.4,0,0.6,0c0,1.1,0,2.1,0,3.2H32.2L32.2,16.5z M5.6,13.2c0.2,0,0.4,0,0.6,0c0.2,0,0.4,0,0.6,0c0,1,0,2.1,0,3.2c-0.3,0-0.6,0-0.8,0l-0.3,0C5.6,15.4,5.6,14.3,5.6,13.2L5.6,13.2z M16.2,14.8h1.5v3.5h-1.5V14.8L16.2,14.8z M21.2,14.9h1.5v3.4h-1.5V14.9L21.2,14.9z"></path>
	</svg>